<mxfile host="app.diagrams.net" agent="Mozilla/5.0 (X11; Linux x86_64) AppleWebKit/537.36 (KHTML, like Gecko) Chrome/127.0.0.0 Safari/537.36" version="27.1.6">
  <diagram name="Page-1" id="q7mK_eRBIV1bxQqDiuw5">
    <mxGraphModel dx="934" dy="550" grid="1" gridSize="10" guides="1" tooltips="1" connect="1" arrows="1" fold="1" page="1" pageScale="1" pageWidth="850" pageHeight="1100" math="0" shadow="0">
      <root>
        <mxCell id="0" />
        <mxCell id="1" parent="0" />
        <mxCell id="EneeX0Qr8gwKd9KLv-ff-15" value="" style="rounded=0;whiteSpace=wrap;html=1;strokeColor=none;" vertex="1" parent="1">
          <mxGeometry x="40" y="80" width="710" height="410" as="geometry" />
        </mxCell>
        <mxCell id="EneeX0Qr8gwKd9KLv-ff-2" value="" style="rounded=0;whiteSpace=wrap;html=1;strokeColor=none;fillColor=#dae8fc;" vertex="1" parent="1">
          <mxGeometry x="80" y="120" width="200" height="320" as="geometry" />
        </mxCell>
        <mxCell id="EneeX0Qr8gwKd9KLv-ff-4" value="" style="shape=image;verticalLabelPosition=bottom;labelBackgroundColor=default;verticalAlign=top;aspect=fixed;imageAspect=0;image=https://upload.wikimedia.org/wikipedia/commons/thumb/7/71/AirflowLogo.svg/640px-AirflowLogo.svg.png;" vertex="1" parent="1">
          <mxGeometry x="89.67" y="130" width="180.65" height="70" as="geometry" />
        </mxCell>
        <mxCell id="EneeX0Qr8gwKd9KLv-ff-5" value="&lt;b&gt;&lt;font style=&quot;font-size: 19px;&quot;&gt;webserver&lt;/font&gt;&lt;/b&gt;" style="rounded=0;whiteSpace=wrap;html=1;fillColor=#f5f5f5;fontColor=#333333;strokeColor=#666666;" vertex="1" parent="1">
          <mxGeometry x="120" y="210" width="120" height="40" as="geometry" />
        </mxCell>
        <mxCell id="EneeX0Qr8gwKd9KLv-ff-6" value="&lt;span style=&quot;font-size: 19px;&quot;&gt;&lt;b&gt;scheduler&lt;/b&gt;&lt;/span&gt;" style="rounded=0;whiteSpace=wrap;html=1;fillColor=#f5f5f5;fontColor=#333333;strokeColor=#666666;" vertex="1" parent="1">
          <mxGeometry x="120" y="270" width="120" height="40" as="geometry" />
        </mxCell>
        <mxCell id="EneeX0Qr8gwKd9KLv-ff-7" value="&lt;span style=&quot;font-size: 19px;&quot;&gt;&lt;b&gt;worker&lt;/b&gt;&lt;/span&gt;" style="rounded=0;whiteSpace=wrap;html=1;fillColor=#f5f5f5;fontColor=#333333;strokeColor=#666666;" vertex="1" parent="1">
          <mxGeometry x="120" y="330" width="120" height="40" as="geometry" />
        </mxCell>
        <mxCell id="EneeX0Qr8gwKd9KLv-ff-8" value="&lt;span style=&quot;font-size: 19px;&quot;&gt;&lt;b&gt;......&lt;/b&gt;&lt;/span&gt;" style="rounded=0;whiteSpace=wrap;html=1;fillColor=#f5f5f5;fontColor=#333333;strokeColor=#666666;" vertex="1" parent="1">
          <mxGeometry x="120" y="390" width="120" height="40" as="geometry" />
        </mxCell>
        <mxCell id="EneeX0Qr8gwKd9KLv-ff-9" value="" style="rounded=0;whiteSpace=wrap;html=1;strokeColor=none;fillColor=#ffe6cc;" vertex="1" parent="1">
          <mxGeometry x="320" y="120" width="200" height="320" as="geometry" />
        </mxCell>
        <mxCell id="EneeX0Qr8gwKd9KLv-ff-10" value="" style="shape=image;verticalLabelPosition=bottom;labelBackgroundColor=default;verticalAlign=top;aspect=fixed;imageAspect=0;image=https://www.devahoy.com/images/2019/11/redis.png;" vertex="1" parent="1">
          <mxGeometry x="360" y="158.82999999999998" width="108" height="91.17" as="geometry" />
        </mxCell>
        <mxCell id="EneeX0Qr8gwKd9KLv-ff-11" value="" style="shape=image;verticalLabelPosition=bottom;labelBackgroundColor=default;verticalAlign=top;aspect=fixed;imageAspect=0;image=https://images.g2crowd.com/uploads/product/image/social_landscape/social_landscape_251be2af3ae607c45c14e816eaa1cf41/postgresql.png;" vertex="1" parent="1">
          <mxGeometry x="261.62" y="270" width="304.76" height="160" as="geometry" />
        </mxCell>
        <mxCell id="EneeX0Qr8gwKd9KLv-ff-14" value="" style="shape=image;verticalLabelPosition=bottom;labelBackgroundColor=default;verticalAlign=top;aspect=fixed;imageAspect=0;image=https://benjaminberhault.com/images/pgadmin.png;" vertex="1" parent="1">
          <mxGeometry x="550" y="300" width="173.62" height="80.75" as="geometry" />
        </mxCell>
        <mxCell id="EneeX0Qr8gwKd9KLv-ff-20" value="" style="endArrow=classic;html=1;rounded=0;strokeWidth=4;" edge="1" parent="1">
          <mxGeometry width="50" height="50" relative="1" as="geometry">
            <mxPoint x="558" y="339.96" as="sourcePoint" />
            <mxPoint x="460" y="339.96" as="targetPoint" />
          </mxGeometry>
        </mxCell>
        <mxCell id="EneeX0Qr8gwKd9KLv-ff-21" value="" style="endArrow=classic;startArrow=classic;html=1;rounded=0;strokeWidth=4;" edge="1" parent="1">
          <mxGeometry width="50" height="50" relative="1" as="geometry">
            <mxPoint x="261.62" y="289.76" as="sourcePoint" />
            <mxPoint x="340" y="289.76" as="targetPoint" />
          </mxGeometry>
        </mxCell>
      </root>
    </mxGraphModel>
  </diagram>
</mxfile>
